<?xml version="1.0" encoding="UTF-8" standalone="no"?>
<!DOCTYPE svg PUBLIC "-//W3C//DTD SVG 1.0//EN" "http://www.w3.org/TR/2001/PR-SVG-20010719/DTD/svg10.dtd">
<svg width="53cm" height="15cm" viewBox="43 284 1046 298" xmlns="http://www.w3.org/2000/svg" xmlns:xlink="http://www.w3.org/1999/xlink">
  <g>
    <rect style="fill: #ffffff" x="615" y="288" width="172.3" height="18"/>
    <rect style="fill: none; fill-opacity:0; stroke-width: 2; stroke: #000000" x="615" y="288" width="172.3" height="18"/>
    <text font-size="11.2" style="fill: #000000;text-anchor:middle;font-family:sans-serif;font-style:normal;font-weight:700" x="701.15" y="302">interaction</text>
    <rect style="fill: #ffffff" x="615" y="306" width="172.3" height="132"/>
    <rect style="fill: none; fill-opacity:0; stroke-width: 2; stroke: #000000" x="615" y="306" width="172.3" height="132"/>
    <polygon style="fill: #000000" points="618,316 620,319 622,316 620,313 "/>
    <text font-size="12.8" style="fill: #000000;text-anchor:start;font-family:monospace;font-style:normal;font-weight:normal" x="624" y="322">id</text>
    <text font-size="12.8" style="fill: #000000;text-anchor:start;font-family:monospace;font-style:normal;font-weight:normal" x="726.4" y="322">string</text>
    <line style="fill: none; fill-opacity:0; stroke-width: 1; stroke: #000000" x1="624" y1="323.6" x2="772.6" y2="323.6"/>
    <ellipse style="fill: none; fill-opacity:0; stroke-width: 0.2; stroke: #000000" cx="620" cy="332" rx="2" ry="2"/>
    <text font-size="12.8" style="fill: #000000;text-anchor:start;font-family:monospace;font-style:normal;font-weight:normal" x="624" y="338">type</text>
    <text font-size="12.8" style="fill: #000000;text-anchor:start;font-family:monospace;font-style:normal;font-weight:normal" x="726.4" y="338">string</text>
    <ellipse style="fill: none; fill-opacity:0; stroke-width: 0.2; stroke: #000000" cx="620" cy="348" rx="2" ry="2"/>
    <text font-size="12.8" style="fill: #000000;text-anchor:start;font-family:monospace;font-style:normal;font-weight:normal" x="624" y="354">directional</text>
    <text font-size="12.8" style="fill: #000000;text-anchor:start;font-family:monospace;font-style:normal;font-weight:normal" x="726.4" y="354">boolean</text>
    <ellipse style="fill: none; fill-opacity:0; stroke-width: 0.2; stroke: #000000" cx="620" cy="364" rx="2" ry="2"/>
    <text font-size="12.8" style="fill: #000000;text-anchor:start;font-family:monospace;font-style:normal;font-weight:normal" x="624" y="370">quantitative</text>
    <text font-size="12.8" style="fill: #000000;text-anchor:start;font-family:monospace;font-style:normal;font-weight:normal" x="726.4" y="370">boolean</text>
    <ellipse style="fill: none; fill-opacity:0; stroke-width: 0.2; stroke: #000000" cx="620" cy="380" rx="2" ry="2"/>
    <text font-size="12.8" style="fill: #000000;text-anchor:start;font-family:monospace;font-style:normal;font-weight:normal" x="624" y="386">from_id</text>
    <text font-size="12.8" style="fill: #000000;text-anchor:start;font-family:monospace;font-style:normal;font-weight:normal" x="726.4" y="386">string</text>
    <ellipse style="fill: none; fill-opacity:0; stroke-width: 0.2; stroke: #000000" cx="620" cy="396" rx="2" ry="2"/>
    <text font-size="12.8" style="fill: #000000;text-anchor:start;font-family:monospace;font-style:normal;font-weight:normal" x="624" y="402">to_id</text>
    <text font-size="12.8" style="fill: #000000;text-anchor:start;font-family:monospace;font-style:normal;font-weight:normal" x="726.4" y="402">string</text>
    <ellipse style="fill: none; fill-opacity:0; stroke-width: 0.2; stroke: #000000" cx="620" cy="412" rx="2" ry="2"/>
    <text font-size="12.8" style="fill: #000000;text-anchor:start;font-family:monospace;font-style:normal;font-weight:normal" x="624" y="418">from_state</text>
    <text font-size="12.8" style="fill: #000000;text-anchor:start;font-family:monospace;font-style:normal;font-weight:normal" x="726.4" y="418">string</text>
    <ellipse style="fill: none; fill-opacity:0; stroke-width: 0.2; stroke: #000000" cx="620" cy="428" rx="2" ry="2"/>
    <text font-size="12.8" style="fill: #000000;text-anchor:start;font-family:monospace;font-style:normal;font-weight:normal" x="624" y="434">to_state</text>
    <text font-size="12.8" style="fill: #000000;text-anchor:start;font-family:monospace;font-style:normal;font-weight:normal" x="726.4" y="434">string</text>
  </g>
  <g>
    <rect style="fill: #ffffff" x="915" y="328" width="174.4" height="18"/>
    <rect style="fill: none; fill-opacity:0; stroke-width: 2; stroke: #000000" x="915" y="328" width="174.4" height="18"/>
    <text font-size="11.2" style="fill: #000000;text-anchor:middle;font-family:sans-serif;font-style:normal;font-weight:700" x="1002.2" y="342">population</text>
    <rect style="fill: #ffffff" x="915" y="346" width="174.4" height="94"/>
    <rect style="fill: none; fill-opacity:0; stroke-width: 2; stroke: #000000" x="915" y="346" width="174.4" height="94"/>
    <polygon style="fill: #000000" points="918,356 920,359 922,356 920,353 "/>
    <text font-size="12.8" style="fill: #000000;text-anchor:start;font-family:monospace;font-style:normal;font-weight:normal" x="924" y="362">id</text>
    <text font-size="12.8" style="fill: #000000;text-anchor:start;font-family:monospace;font-style:normal;font-weight:normal" x="980.2" y="362">string</text>
    <line style="fill: none; fill-opacity:0; stroke-width: 1; stroke: #000000" x1="924" y1="363.6" x2="1026.4" y2="363.6"/>
    <ellipse style="fill: none; fill-opacity:0; stroke-width: 0.2; stroke: #000000" cx="920" cy="372" rx="2" ry="2"/>
    <text font-size="12.8" style="fill: #000000;text-anchor:start;font-family:monospace;font-style:normal;font-weight:normal" x="924" y="378">tax_id</text>
    <text font-size="12.8" style="fill: #000000;text-anchor:start;font-family:monospace;font-style:normal;font-weight:normal" x="980.2" y="378">array</text>
    <text font-size="11.2" style="fill: #000000;text-anchor:start;font-family:sans-serif;font-style:italic;font-weight:normal" x="929" y="392">Pairs of taxo services and ID</text>
    <ellipse style="fill: none; fill-opacity:0; stroke-width: 0.2; stroke: #000000" cx="920" cy="409" rx="2" ry="2"/>
    <text font-size="12.8" style="fill: #000000;text-anchor:start;font-family:monospace;font-style:normal;font-weight:normal" x="924" y="415">name</text>
    <text font-size="12.8" style="fill: #000000;text-anchor:start;font-family:monospace;font-style:normal;font-weight:normal" x="980.2" y="415">string</text>
    <text font-size="11.2" style="fill: #000000;text-anchor:start;font-family:sans-serif;font-style:italic;font-weight:normal" x="929" y="429">general descriptor</text>
  </g>
  <g>
    <polyline style="fill: none; fill-opacity:0; stroke-width: 2; stroke: #000000" points="787.3,380 851.15,380 851.15,337 905.264,337 "/>
    <polygon style="fill: #000000" points="912.764,337 902.764,342 905.264,337 902.764,332 "/>
    <polygon style="fill: none; fill-opacity:0; stroke-width: 2; stroke: #000000" points="912.764,337 902.764,342 905.264,337 902.764,332 "/>
    <text font-size="9.59863" style="fill: #000000;text-anchor:start;font-family:monospace;font-style:normal;font-weight:normal" x="791.3" y="376">1</text>
    <text font-size="9.59863" style="fill: #000000;text-anchor:end;font-family:monospace;font-style:normal;font-weight:normal" x="911" y="333">n</text>
  </g>
  <g>
    <polyline style="fill: none; fill-opacity:0; stroke-width: 2; stroke: #000000" points="787.3,396 851.15,396 851.15,337 905.264,337 "/>
    <polygon style="fill: #000000" points="912.764,337 902.764,342 905.264,337 902.764,332 "/>
    <polygon style="fill: none; fill-opacity:0; stroke-width: 2; stroke: #000000" points="912.764,337 902.764,342 905.264,337 902.764,332 "/>
    <text font-size="9.59863" style="fill: #000000;text-anchor:start;font-family:monospace;font-style:normal;font-weight:normal" x="791.3" y="392">1</text>
    <text font-size="9.59863" style="fill: #000000;text-anchor:end;font-family:monospace;font-style:normal;font-weight:normal" x="911" y="333">n</text>
  </g>
  <g>
    <rect style="fill: #ffffff" x="837" y="514" width="118.4" height="18"/>
    <rect style="fill: none; fill-opacity:0; stroke-width: 2; stroke: #000000" x="837" y="514" width="118.4" height="18"/>
    <text font-size="11.2" style="fill: #000000;text-anchor:middle;font-family:sans-serif;font-style:normal;font-weight:700" x="896.2" y="528">population_state</text>
    <rect style="fill: #ffffff" x="837" y="532" width="118.4" height="36"/>
    <rect style="fill: none; fill-opacity:0; stroke-width: 2; stroke: #000000" x="837" y="532" width="118.4" height="36"/>
    <polygon style="fill: #000000" points="840,542 842,545 844,542 842,539 "/>
    <text font-size="12.8" style="fill: #000000;text-anchor:start;font-family:monospace;font-style:normal;font-weight:normal" x="846" y="548">id</text>
    <text font-size="12.8" style="fill: #000000;text-anchor:start;font-family:monospace;font-style:normal;font-weight:normal" x="902.2" y="548">string</text>
    <line style="fill: none; fill-opacity:0; stroke-width: 1; stroke: #000000" x1="846" y1="549.6" x2="948.4" y2="549.6"/>
    <ellipse style="fill: none; fill-opacity:0; stroke-width: 0.2; stroke: #000000" cx="842" cy="558" rx="2" ry="2"/>
    <text font-size="12.8" style="fill: #000000;text-anchor:start;font-family:monospace;font-style:normal;font-weight:normal" x="846" y="564">values</text>
    <text font-size="12.8" style="fill: #000000;text-anchor:start;font-family:monospace;font-style:normal;font-weight:normal" x="902.2" y="564">array</text>
  </g>
  <g>
    <polyline style="fill: none; fill-opacity:0; stroke-width: 2; stroke: #000000" points="787.3,412 812.15,412 812.15,523 827.264,523 "/>
    <polygon style="fill: #000000" points="834.764,523 824.764,528 827.264,523 824.764,518 "/>
    <polygon style="fill: none; fill-opacity:0; stroke-width: 2; stroke: #000000" points="834.764,523 824.764,528 827.264,523 824.764,518 "/>
    <text font-size="9.59863" style="fill: #000000;text-anchor:start;font-family:monospace;font-style:normal;font-weight:normal" x="791.3" y="408">1</text>
    <text font-size="9.59863" style="fill: #000000;text-anchor:end;font-family:monospace;font-style:normal;font-weight:normal" x="833" y="519">n</text>
  </g>
  <g>
    <polyline style="fill: none; fill-opacity:0; stroke-width: 2; stroke: #000000" points="787.3,428 812.15,428 812.15,523 827.264,523 "/>
    <polygon style="fill: #000000" points="834.764,523 824.764,528 827.264,523 824.764,518 "/>
    <polygon style="fill: none; fill-opacity:0; stroke-width: 2; stroke: #000000" points="834.764,523 824.764,528 827.264,523 824.764,518 "/>
    <text font-size="9.59863" style="fill: #000000;text-anchor:start;font-family:monospace;font-style:normal;font-weight:normal" x="791.3" y="424">1</text>
    <text font-size="9.59863" style="fill: #000000;text-anchor:end;font-family:monospace;font-style:normal;font-weight:normal" x="833" y="519">n</text>
  </g>
  <g>
    <rect style="fill: #ffffff" x="617" y="483" width="128.5" height="18"/>
    <rect style="fill: none; fill-opacity:0; stroke-width: 2; stroke: #000000" x="617" y="483" width="128.5" height="18"/>
    <text font-size="11.2" style="fill: #000000;text-anchor:middle;font-family:sans-serif;font-style:normal;font-weight:700" x="681.25" y="497">environment_state</text>
    <rect style="fill: #ffffff" x="617" y="501" width="128.5" height="36"/>
    <rect style="fill: none; fill-opacity:0; stroke-width: 2; stroke: #000000" x="617" y="501" width="128.5" height="36"/>
    <polygon style="fill: #000000" points="620,511 622,514 624,511 622,508 "/>
    <text font-size="12.8" style="fill: #000000;text-anchor:start;font-family:monospace;font-style:normal;font-weight:normal" x="626" y="517">id</text>
    <text font-size="12.8" style="fill: #000000;text-anchor:start;font-family:monospace;font-style:normal;font-weight:normal" x="682.2" y="517">string</text>
    <line style="fill: none; fill-opacity:0; stroke-width: 1; stroke: #000000" x1="626" y1="518.6" x2="728.4" y2="518.6"/>
    <ellipse style="fill: none; fill-opacity:0; stroke-width: 0.2; stroke: #000000" cx="622" cy="527" rx="2" ry="2"/>
    <text font-size="12.8" style="fill: #000000;text-anchor:start;font-family:monospace;font-style:normal;font-weight:normal" x="626" y="533">values</text>
    <text font-size="12.8" style="fill: #000000;text-anchor:start;font-family:monospace;font-style:normal;font-weight:normal" x="682.2" y="533">array</text>
  </g>
  <g>
    <rect style="fill: #ffffff" x="288" y="320" width="166.1" height="18"/>
    <rect style="fill: none; fill-opacity:0; stroke-width: 2; stroke: #000000" x="288" y="320" width="166.1" height="18"/>
    <text font-size="11.2" style="fill: #000000;text-anchor:middle;font-family:sans-serif;font-style:normal;font-weight:700" x="371.05" y="334">network</text>
    <rect style="fill: #ffffff" x="288" y="338" width="166.1" height="105"/>
    <rect style="fill: none; fill-opacity:0; stroke-width: 2; stroke: #000000" x="288" y="338" width="166.1" height="105"/>
    <polygon style="fill: #000000" points="291,348 293,351 295,348 293,345 "/>
    <text font-size="12.8" style="fill: #000000;text-anchor:start;font-family:monospace;font-style:normal;font-weight:normal" x="297" y="354">id</text>
    <text font-size="12.8" style="fill: #000000;text-anchor:start;font-family:monospace;font-style:normal;font-weight:normal" x="399.4" y="354">string</text>
    <line style="fill: none; fill-opacity:0; stroke-width: 1; stroke: #000000" x1="297" y1="355.6" x2="445.6" y2="355.6"/>
    <ellipse style="fill: none; fill-opacity:0; stroke-width: 0.2; stroke: #000000" cx="293" cy="364" rx="2" ry="2"/>
    <text font-size="12.8" style="fill: #000000;text-anchor:start;font-family:monospace;font-style:normal;font-weight:normal" x="297" y="370">interactions</text>
    <text font-size="12.8" style="fill: #000000;text-anchor:start;font-family:monospace;font-style:normal;font-weight:normal" x="399.4" y="370">array</text>
    <ellipse style="fill: none; fill-opacity:0; stroke-width: 0.2; stroke: #000000" cx="293" cy="380" rx="2" ry="2"/>
    <text font-size="12.8" style="fill: #000000;text-anchor:start;font-family:monospace;font-style:normal;font-weight:normal" x="297" y="386">environment</text>
    <text font-size="12.8" style="fill: #000000;text-anchor:start;font-family:monospace;font-style:normal;font-weight:normal" x="399.4" y="386">string</text>
    <text font-size="11.2" style="fill: #000000;text-anchor:start;font-family:sans-serif;font-style:italic;font-weight:normal" x="302" y="400">ID of environmental record</text>
    <ellipse style="fill: none; fill-opacity:0; stroke-width: 0.2; stroke: #000000" cx="293" cy="417" rx="2" ry="2"/>
    <text font-size="12.8" style="fill: #000000;text-anchor:start;font-family:monospace;font-style:normal;font-weight:normal" x="297" y="423">date</text>
    <text font-size="12.8" style="fill: #000000;text-anchor:start;font-family:monospace;font-style:normal;font-weight:normal" x="399.4" y="423">string</text>
    <ellipse style="fill: none; fill-opacity:0; stroke-width: 0.2; stroke: #000000" cx="293" cy="433" rx="2" ry="2"/>
    <text font-size="12.8" style="fill: #000000;text-anchor:start;font-family:monospace;font-style:normal;font-weight:normal" x="297" y="439">place</text>
    <text font-size="12.8" style="fill: #000000;text-anchor:start;font-family:monospace;font-style:normal;font-weight:normal" x="399.4" y="439">geo</text>
  </g>
  <g>
    <polyline style="fill: none; fill-opacity:0; stroke-width: 2; stroke: #000000" points="454.1,364 534.55,364 534.55,297 605.264,297 "/>
    <polygon style="fill: #000000" points="612.764,297 602.764,302 605.264,297 602.764,292 "/>
    <polygon style="fill: none; fill-opacity:0; stroke-width: 2; stroke: #000000" points="612.764,297 602.764,302 605.264,297 602.764,292 "/>
    <text font-size="9.59863" style="fill: #000000;text-anchor:start;font-family:monospace;font-style:normal;font-weight:normal" x="458.1" y="360">1</text>
    <text font-size="9.59863" style="fill: #000000;text-anchor:end;font-family:monospace;font-style:normal;font-weight:normal" x="611" y="293">n</text>
  </g>
  <g>
    <polyline style="fill: none; fill-opacity:0; stroke-width: 2; stroke: #000000" points="454.1,380 535.55,380 535.55,492 607.264,492 "/>
    <polygon style="fill: #000000" points="614.764,492 604.764,497 607.264,492 604.764,487 "/>
    <polygon style="fill: none; fill-opacity:0; stroke-width: 2; stroke: #000000" points="614.764,492 604.764,497 607.264,492 604.764,487 "/>
    <text font-size="9.59863" style="fill: #000000;text-anchor:start;font-family:monospace;font-style:normal;font-weight:normal" x="458.1" y="376">1</text>
    <text font-size="9.59863" style="fill: #000000;text-anchor:end;font-family:monospace;font-style:normal;font-weight:normal" x="613" y="488">n</text>
  </g>
  <g>
    <rect style="fill: #ffffff" x="44" y="407" width="162.75" height="18"/>
    <rect style="fill: none; fill-opacity:0; stroke-width: 2; stroke: #000000" x="44" y="407" width="162.75" height="18"/>
    <text font-size="11.2" style="fill: #000000;text-anchor:middle;font-family:sans-serif;font-style:normal;font-weight:700" x="125.375" y="421">collection</text>
    <rect style="fill: #ffffff" x="44" y="425" width="162.75" height="110"/>
    <rect style="fill: none; fill-opacity:0; stroke-width: 2; stroke: #000000" x="44" y="425" width="162.75" height="110"/>
    <polygon style="fill: #000000" points="47,435 49,438 51,435 49,432 "/>
    <text font-size="12.8" style="fill: #000000;text-anchor:start;font-family:monospace;font-style:normal;font-weight:normal" x="53" y="441">id</text>
    <text font-size="12.8" style="fill: #000000;text-anchor:start;font-family:monospace;font-style:normal;font-weight:normal" x="124.6" y="441">string</text>
    <line style="fill: none; fill-opacity:0; stroke-width: 1; stroke: #000000" x1="53" y1="442.6" x2="170.8" y2="442.6"/>
    <ellipse style="fill: none; fill-opacity:0; stroke-width: 0.2; stroke: #000000" cx="49" cy="451" rx="2" ry="2"/>
    <text font-size="12.8" style="fill: #000000;text-anchor:start;font-family:monospace;font-style:normal;font-weight:normal" x="53" y="457">networks</text>
    <text font-size="12.8" style="fill: #000000;text-anchor:start;font-family:monospace;font-style:normal;font-weight:normal" x="124.6" y="457">array</text>
    <ellipse style="fill: none; fill-opacity:0; stroke-width: 0.2; stroke: #000000" cx="49" cy="467" rx="2" ry="2"/>
    <text font-size="12.8" style="fill: #000000;text-anchor:start;font-family:monospace;font-style:normal;font-weight:normal" x="53" y="473">biblio</text>
    <text font-size="12.8" style="fill: #000000;text-anchor:start;font-family:monospace;font-style:normal;font-weight:normal" x="124.6" y="473">string</text>
    <text font-size="11.2" style="fill: #000000;text-anchor:start;font-family:sans-serif;font-style:italic;font-weight:normal" x="58" y="487">ID of bibliographic records</text>
    <ellipse style="fill: none; fill-opacity:0; stroke-width: 0.2; stroke: #000000" cx="49" cy="504" rx="2" ry="2"/>
    <text font-size="12.8" style="fill: #000000;text-anchor:start;font-family:monospace;font-style:normal;font-weight:normal" x="53" y="510">author</text>
    <text font-size="12.8" style="fill: #000000;text-anchor:start;font-family:monospace;font-style:normal;font-weight:normal" x="124.6" y="510">string</text>
    <text font-size="11.2" style="fill: #000000;text-anchor:start;font-family:sans-serif;font-style:italic;font-weight:normal" x="58" y="524">ID of contributor</text>
  </g>
  <g>
    <rect style="fill: #ffffff" x="320" y="527" width="118.4" height="18"/>
    <rect style="fill: none; fill-opacity:0; stroke-width: 2; stroke: #000000" x="320" y="527" width="118.4" height="18"/>
    <text font-size="11.2" style="fill: #000000;text-anchor:middle;font-family:sans-serif;font-style:normal;font-weight:700" x="379.2" y="541">biblio</text>
    <rect style="fill: #ffffff" x="320" y="545" width="118.4" height="36"/>
    <rect style="fill: none; fill-opacity:0; stroke-width: 2; stroke: #000000" x="320" y="545" width="118.4" height="36"/>
    <polygon style="fill: #000000" points="323,555 325,558 327,555 325,552 "/>
    <text font-size="12.8" style="fill: #000000;text-anchor:start;font-family:monospace;font-style:normal;font-weight:normal" x="329" y="561">id</text>
    <text font-size="12.8" style="fill: #000000;text-anchor:start;font-family:monospace;font-style:normal;font-weight:normal" x="385.2" y="561">string</text>
    <line style="fill: none; fill-opacity:0; stroke-width: 1; stroke: #000000" x1="329" y1="562.6" x2="431.4" y2="562.6"/>
    <ellipse style="fill: none; fill-opacity:0; stroke-width: 0.2; stroke: #000000" cx="325" cy="571" rx="2" ry="2"/>
    <text font-size="12.8" style="fill: #000000;text-anchor:start;font-family:monospace;font-style:normal;font-weight:normal" x="329" y="577">values</text>
    <text font-size="12.8" style="fill: #000000;text-anchor:start;font-family:monospace;font-style:normal;font-weight:normal" x="385.2" y="577">array</text>
  </g>
  <g>
    <polyline style="fill: none; fill-opacity:0; stroke-width: 2; stroke: #000000" points="206.75,467 263.375,467 263.375,536 310.264,536 "/>
    <polygon style="fill: #000000" points="317.764,536 307.764,541 310.264,536 307.764,531 "/>
    <polygon style="fill: none; fill-opacity:0; stroke-width: 2; stroke: #000000" points="317.764,536 307.764,541 310.264,536 307.764,531 "/>
    <text font-size="9.59863" style="fill: #000000;text-anchor:start;font-family:monospace;font-style:normal;font-weight:normal" x="210.75" y="463">1</text>
    <text font-size="9.59863" style="fill: #000000;text-anchor:end;font-family:monospace;font-style:normal;font-weight:normal" x="316" y="532">n</text>
  </g>
  <g>
    <polyline style="fill: none; fill-opacity:0; stroke-width: 2; stroke: #000000" points="206.75,451 247.375,451 247.375,329 278.264,329 "/>
    <polygon style="fill: #000000" points="285.764,329 275.764,334 278.264,329 275.764,324 "/>
    <polygon style="fill: none; fill-opacity:0; stroke-width: 2; stroke: #000000" points="285.764,329 275.764,334 278.264,329 275.764,324 "/>
    <text font-size="9.59863" style="fill: #000000;text-anchor:start;font-family:monospace;font-style:normal;font-weight:normal" x="210.75" y="447">1</text>
    <text font-size="9.59863" style="fill: #000000;text-anchor:end;font-family:monospace;font-style:normal;font-weight:normal" x="284" y="325">n</text>
  </g>
</svg>
